<svg id="portal" enable-background="new 0 0 192 192" height="50" viewBox="0 0 192 192" width="60" xmlns="http://www.w3.org/2000/svg"><path d="m178.4 188.8h-164.8c-5.744 0-10.4-4.656-10.4-10.4v-140h185.6v140c0 5.744-4.656 10.4-10.4 10.4z" fill="#e7eced"/><path d="m188.8 41.6h-185.6v-28c0-5.744 4.656-10.4 10.4-10.4h164.8c5.744 0 10.4 4.656 10.4 10.4z" fill="#556080"/><path d="m16 16h12.8v12.8h-12.8z" fill="#dd352e"/><path d="m41.6 16h12.8v12.8h-12.8z" fill="#ebba16"/><path d="m67.2 16h12.8v12.8h-12.8z" fill="#23a24d"/><path d="m19.2 153.6h153.6v19.2h-153.6z" fill="#366db6"/><path d="m19.2 57.6h38.4v51.2h-38.4z" fill="#23a24d"/><path d="m134.4 57.6h38.4v51.2h-38.4z" fill="#dd352e"/><path d="m76.8 57.6h38.4v51.2h-38.4z" fill="#ebba16"/><g fill="#4d007e"><path d="m177.6 192h-163.2c-7.939 0-14.4-6.461-14.4-14.4v-163.2c0-7.939 6.461-14.4 14.4-14.4h163.2c7.939 0 14.4 6.461 14.4 14.4v163.2c0 7.939-6.461 14.4-14.4 14.4zm-163.2-185.6c-4.41 0-8 3.59-8 8v163.2c0 4.41 3.59 8 8 8h163.2c4.413 0 8-3.59 8-8v-163.2c0-4.41-3.59-8-8-8z"/><path d="m28.8 32h-12.8c-1.766 0-3.2-1.434-3.2-3.2v-12.8c0-1.766 1.434-3.2 3.2-3.2h12.8c1.766 0 3.2 1.434 3.2 3.2v12.8c0 1.766-1.434 3.2-3.2 3.2zm-9.6-6.4h6.4v-6.4h-6.4z"/><path d="m54.4 32h-12.8c-1.766 0-3.2-1.434-3.2-3.2v-12.8c0-1.766 1.434-3.2 3.2-3.2h12.8c1.766 0 3.2 1.434 3.2 3.2v12.8c0 1.766-1.434 3.2-3.2 3.2zm-9.6-6.4h6.4v-6.4h-6.4z"/><path d="m80 32h-12.8c-1.766 0-3.2-1.434-3.2-3.2v-12.8c0-1.766 1.434-3.2 3.2-3.2h12.8c1.766 0 3.2 1.434 3.2 3.2v12.8c0 1.766-1.434 3.2-3.2 3.2zm-9.6-6.4h6.4v-6.4h-6.4z"/><path d="m188.8 44.8h-185.6c-1.766 0-3.2-1.434-3.2-3.2v-27.2c0-7.939 6.461-14.4 14.4-14.4h163.2c7.939 0 14.4 6.461 14.4 14.4v27.2c0 1.766-1.434 3.2-3.2 3.2zm-182.4-6.4h179.2v-24c0-4.41-3.59-8-8-8h-163.2c-4.41 0-8 3.59-8 8z"/><path d="m172.8 176h-153.6c-1.766 0-3.2-1.434-3.2-3.2v-19.2c0-1.766 1.434-3.2 3.2-3.2h153.6c1.766 0 3.2 1.434 3.2 3.2v19.2c0 1.766-1.434 3.2-3.2 3.2zm-150.4-6.4h147.2v-12.8h-147.2z"/><path d="m57.6 112h-38.4c-1.766 0-3.2-1.434-3.2-3.2v-51.2c0-1.766 1.434-3.2 3.2-3.2h38.4c1.766 0 3.2 1.434 3.2 3.2v51.2c0 1.766-1.434 3.2-3.2 3.2zm-35.2-6.4h32v-44.8h-32z"/><path d="m172.8 112h-38.4c-1.766 0-3.2-1.434-3.2-3.2v-51.2c0-1.766 1.434-3.2 3.2-3.2h38.4c1.766 0 3.2 1.434 3.2 3.2v51.2c0 1.766-1.434 3.2-3.2 3.2zm-35.2-6.4h32v-44.8h-32z"/><path d="m115.2 112h-38.4c-1.766 0-3.2-1.434-3.2-3.2v-51.2c0-1.766 1.434-3.2 3.2-3.2h38.4c1.766 0 3.2 1.434 3.2 3.2v51.2c0 1.766-1.434 3.2-3.2 3.2zm-35.2-6.4h32v-44.8h-32z"/><path d="m160 73.6h-12.8c-1.766 0-3.2-1.434-3.2-3.2s1.434-3.2 3.2-3.2h12.8c1.766 0 3.2 1.434 3.2 3.2s-1.434 3.2-3.2 3.2z"/><path d="m160 86.4h-12.8c-1.766 0-3.2-1.434-3.2-3.2s1.434-3.2 3.2-3.2h12.8c1.766 0 3.2 1.434 3.2 3.2s-1.434 3.2-3.2 3.2z"/><path d="m160 99.2h-12.8c-1.766 0-3.2-1.434-3.2-3.2s1.434-3.2 3.2-3.2h12.8c1.766 0 3.2 1.434 3.2 3.2s-1.434 3.2-3.2 3.2z"/><path d="m102.4 73.6h-12.8c-1.766 0-3.2-1.434-3.2-3.2s1.434-3.2 3.2-3.2h12.8c1.766 0 3.2 1.434 3.2 3.2s-1.434 3.2-3.2 3.2z"/><path d="m102.4 86.4h-12.8c-1.766 0-3.2-1.434-3.2-3.2s1.434-3.2 3.2-3.2h12.8c1.766 0 3.2 1.434 3.2 3.2s-1.434 3.2-3.2 3.2z"/><path d="m102.4 99.2h-12.8c-1.766 0-3.2-1.434-3.2-3.2s1.434-3.2 3.2-3.2h12.8c1.766 0 3.2 1.434 3.2 3.2s-1.434 3.2-3.2 3.2z"/><path d="m44.8 73.6h-12.8c-1.766 0-3.2-1.434-3.2-3.2s1.434-3.2 3.2-3.2h12.8c1.766 0 3.2 1.434 3.2 3.2s-1.434 3.2-3.2 3.2z"/><path d="m44.8 86.4h-12.8c-1.766 0-3.2-1.434-3.2-3.2s1.434-3.2 3.2-3.2h12.8c1.766 0 3.2 1.434 3.2 3.2s-1.434 3.2-3.2 3.2z"/><path d="m44.8 99.2h-12.8c-1.766 0-3.2-1.434-3.2-3.2s1.434-3.2 3.2-3.2h12.8c1.766 0 3.2 1.434 3.2 3.2s-1.434 3.2-3.2 3.2z"/><path d="m57.6 128h-3.2c-1.766 0-3.2-1.434-3.2-3.2s1.434-3.2 3.2-3.2h3.2c1.766 0 3.2 1.434 3.2 3.2s-1.434 3.2-3.2 3.2z"/><path d="m41.6 128h-22.4c-1.766 0-3.2-1.434-3.2-3.2s1.434-3.2 3.2-3.2h22.4c1.766 0 3.2 1.434 3.2 3.2s-1.434 3.2-3.2 3.2z"/><path d="m22.4 140.8h-3.2c-1.766 0-3.2-1.434-3.2-3.2s1.434-3.2 3.2-3.2h3.2c1.766 0 3.2 1.434 3.2 3.2s-1.434 3.2-3.2 3.2z"/><path d="m57.6 140.8h-22.4c-1.766 0-3.2-1.434-3.2-3.2s1.434-3.2 3.2-3.2h22.4c1.766 0 3.2 1.434 3.2 3.2s-1.434 3.2-3.2 3.2z"/><path d="m115.2 128h-3.2c-1.766 0-3.2-1.434-3.2-3.2s1.434-3.2 3.2-3.2h3.2c1.766 0 3.2 1.434 3.2 3.2s-1.434 3.2-3.2 3.2z"/><path d="m99.2 128h-22.4c-1.766 0-3.2-1.434-3.2-3.2s1.434-3.2 3.2-3.2h22.4c1.766 0 3.2 1.434 3.2 3.2s-1.434 3.2-3.2 3.2z"/><path d="m80 140.8h-3.2c-1.766 0-3.2-1.434-3.2-3.2s1.434-3.2 3.2-3.2h3.2c1.766 0 3.2 1.434 3.2 3.2s-1.434 3.2-3.2 3.2z"/><path d="m115.2 140.8h-22.4c-1.766 0-3.2-1.434-3.2-3.2s1.434-3.2 3.2-3.2h22.4c1.766 0 3.2 1.434 3.2 3.2s-1.434 3.2-3.2 3.2z"/><path d="m172.8 128h-3.2c-1.766 0-3.2-1.434-3.2-3.2s1.434-3.2 3.2-3.2h3.2c1.766 0 3.2 1.434 3.2 3.2s-1.434 3.2-3.2 3.2z"/><path d="m156.8 128h-22.4c-1.766 0-3.2-1.434-3.2-3.2s1.434-3.2 3.2-3.2h22.4c1.766 0 3.2 1.434 3.2 3.2s-1.434 3.2-3.2 3.2z"/><path d="m137.6 140.8h-3.2c-1.766 0-3.2-1.434-3.2-3.2s1.434-3.2 3.2-3.2h3.2c1.766 0 3.2 1.434 3.2 3.2s-1.434 3.2-3.2 3.2z"/><path d="m172.8 140.8h-22.4c-1.766 0-3.2-1.434-3.2-3.2s1.434-3.2 3.2-3.2h22.4c1.766 0 3.2 1.434 3.2 3.2s-1.434 3.2-3.2 3.2z"/></g></svg>